<?xml version="1.0" encoding="UTF-8" standalone="no"?>
<svg
   xmlns:dc="http://purl.org/dc/elements/1.1/"
   xmlns:cc="http://creativecommons.org/ns#"
   xmlns:rdf="http://www.w3.org/1999/02/22-rdf-syntax-ns#"
   xmlns:svg="http://www.w3.org/2000/svg"
   xmlns="http://www.w3.org/2000/svg"
   enable-background="new 0 0 100 100"
   height="100px"
   version="1.1"
   viewBox="0 0 100 100"
   width="100px"
   xml:space="preserve"
   id="svg27"><metadata
     id="metadata33"><rdf:RDF><cc:Work
         rdf:about=""><dc:format>image/svg+xml</dc:format><dc:type
           rdf:resource="http://purl.org/dc/dcmitype/StillImage" /><dc:title></dc:title></cc:Work></rdf:RDF></metadata><defs
     id="defs31"><defs
       id="defs7"><path
         id="SVGID_103_"
         d="m 77.679,48.808 v 2.387 c 0,15.168 -12.393,27.471 -27.678,27.471 -15.283,0 -27.68,-12.303 -27.68,-27.471 v -2.387 c 0,15.17 12.396,27.473 27.68,27.473 C 65.286,76.28 77.679,63.978 77.679,48.808 Z" /></defs><clipPath
       id="SVGID_2_" /></defs><path
     id="path823"
     d="M 100,50 A 50,50 0 0 1 50,100 50,50 0 0 1 0,50 50,50 0 0 1 50,0 50,50 0 0 1 100,50 Z"
     style="opacity:1;fill:#e6e6e6;fill-opacity:1;fill-rule:evenodd;stroke:none;stroke-width:0.30517244;stroke-linecap:round;stroke-linejoin:round;stroke-miterlimit:4;stroke-dasharray:none;stroke-dashoffset:0;stroke-opacity:1;paint-order:stroke markers fill" /><g
     id="g18"
     enable-background="new    "
     clip-path="url(#SVGID_2_)"><path
       style="fill:#9d5025"
       id="path12"
       d="m 77.679,48.808 v 2.387 c 0,1.332 -0.096,2.641 -0.279,3.926 v -2.385 c 0.183,-1.286 0.279,-2.594 0.279,-3.928" /><path
       style="fill:#9d5025"
       id="path14"
       d="m 77.399,52.735 v 2.385 c -0.223,1.518 -0.564,2.998 -1.021,4.426 v -2.389 c 0.457,-1.426 0.799,-2.906 1.021,-4.422" /><path
       style="fill:#9d5025"
       id="path16"
       d="m 76.378,57.157 v 2.389 c -0.547,1.686 -1.242,3.301 -2.088,4.828 v -2.387 c 0.846,-1.529 1.541,-3.144 2.088,-4.83" /></g><path
     style="opacity:1;fill:#ffffff;fill-opacity:1;fill-rule:evenodd;stroke:none;stroke-width:0.1373276;stroke-linecap:round;stroke-linejoin:round;stroke-miterlimit:4;stroke-dasharray:none;stroke-dashoffset:0;stroke-opacity:1;paint-order:stroke markers fill"
     d="M 50.042969 13.474609 A 22.5 22.5 0 0 0 27.542969 35.974609 A 22.5 22.5 0 0 0 50.042969 58.474609 A 22.5 22.5 0 0 0 72.542969 35.974609 A 22.5 22.5 0 0 0 50.042969 13.474609 z M 50.042969 63.474609 A 22.5 17.20339 0 0 0 27.542969 80.679688 A 22.5 17.20339 0 0 0 28.585938 85.792969 A 50 50 0 0 0 50 90.679688 A 50 50 0 0 0 71.542969 85.748047 A 22.5 17.20339 0 0 0 72.542969 80.679688 A 22.5 17.20339 0 0 0 50.042969 63.474609 z "
     id="circle825" /></svg>